<?xml version="1.0" encoding="UTF-8"?>
<svg id="Layer_2" data-name="Layer 2" xmlns="http://www.w3.org/2000/svg" viewBox="0 0 413.81 132.22">
  <defs>
    <style>
      .cls-1 {
        fill: #fff;
      }

      .cls-2 {
        fill: #c02130;
      }

      .cls-3 {
        fill: #c02332;
      }

      .cls-4 {
        fill: #030303;
      }

      .cls-5 {
        fill: #be202f;
      }

      .cls-6 {
        fill: #080808;
      }

      .cls-7 {
        fill: #070707;
      }

      .cls-8 {
        fill: #484848;
      }

      .cls-9 {
        fill: #060606;
      }
    </style>
  </defs>
  <g id="Layer_1-2" data-name="Layer 1">
    <g>
      <path class="cls-7" d="m60.79,103.31c-6.27-.12-12.55-.24-18.82-.35-.4-.39-.81-.39-1.22-.01-8.86.04-17.72-.07-26.58-.4-1.07-.49-2.16-.54-3.25-.08-2.33.03-4.65-.09-6.96-.3,0-.14,0-.29,0-.43,2.72-.23,5.45-.36,8.19-.32,1.09.44,2.18.45,3.26-.06,8.18-.34,16.36-.39,24.54-.36.82.44,1.63.46,2.44-.02,6.68-.12,13.36-.24,20.05-.36.95.42,1.9.46,2.84-.04,7.23-.12,14.45-.25,21.68-.37,1.91.43,3.81.49,5.71-.07,6.82-.11,13.64-.22,20.45-.34,2.04.48,4.08.46,6.11-.06,8.18-.12,16.36-.24,24.54-.36,1.09.44,2.17.47,3.25-.03,8.95-.08,17.9-.15,26.86-.24,4.81-.04,9.63-.11,14.44-.16,1.09.45,2.18.49,3.26-.03,7.5-.11,15-.23,22.5-.34,2.04.48,4.08.46,6.11-.06l23.32-.37c.82.44,1.63.46,2.44-.04,3.28-.12,6.55-.24,9.83-.37.96.42,1.91.43,2.85-.06,9.53-.36,19.06-.34,28.6-.24,1.15.01,2.43.37,3.42-.14.97-.5.91-1.89,1.3-2.88,1.65-4.24,4.36-7.61,8.11-10.16,3.72-2.52,7.82-3.73,12.32-3.51,1.16.06,2.31.12,3.47.17,6.97.26,12.37,3.36,16.18,9.15,1.99,3.03,2.92,6.4,2.59,10.06-.09-.05-.19-.06-.29-.03-.97-2.39-1.89-4.77-3.54-6.85-3.14-3.96-7.19-6.23-12.15-6.55-3.59-.23-7.22.04-10.61,1.55-4.13,1.84-6.94,4.84-8.23,9.21-.43,1.44-.76,2.9-.67,4.42.13,2.29-1.93,4.49-4.54,4.48-6.2-.02-12.39.15-18.59.17-6.06.02-12.12-.06-18.18-.31-.94-.46-1.89-.52-2.84-.06-2.87-.11-5.73-.23-8.6-.34-1.49-.51-2.98-.53-4.48-.05-6.82-.11-13.63-.23-20.45-.34-1.9-.51-3.8-.52-5.71-.05-8.72-.13-17.45-.25-26.17-.38-1.08-.52-2.16-.49-3.25-.04-12.81-.12-25.63-.24-38.44-.36-2.04-.49-4.07-.53-6.12-.05-7.23-.11-14.45-.23-21.68-.34-1.9-.54-3.8-.49-5.71-.06-7.91-.13-15.82-.25-23.72-.38-.94-.49-1.89-.45-2.85-.04-7.23-.12-14.45-.24-21.68-.36-1.76-.53-3.53-.54-5.3-.07Z"/>
      <path class="cls-9" d="m175.14,60.47c-2.96,1.28-5.46,3.29-8.07,5.11-2.89,2.01-5.65,4.22-8.29,6.56-2.83,2.51-5.57,5.13-8.22,7.84-2.85,2.9-5.53,5.95-8.14,9.06-.73.87-1.52,1.18-2.64,1.17-6.4-.05-12.81-.04-19.21-.05-.26,0-.52-.03-1.14-.08,1.73-2.76,3.96-4.8,6-6.95,2.07-2.18,4.25-4.27,6.69-6.06-.44-.64-.95-.46-1.38-.47-1.7-.02-3.42.11-5.11-.04-1.56-.14-2.77.44-3.93,1.31-4.55,3.44-8.8,7.22-12.8,11.28-.64.64-1.27,1-2.12,1-5.18,0-10.35,0-15.53-.02-.1,0-.2-.14-.32-.22-.01-.65.58-.86.95-1.21,6.14-5.68,12.71-10.8,19.78-15.29,6.49-4.12,13.22-7.74,20.19-10.97,5.18-2.4,10.48-4.51,15.82-6.47,5.74-2.1,11.6-3.88,17.5-5.47,8.67-2.33,17.45-4.26,26.29-5.78,10.87-1.88,21.84-3.01,32.83-3.95,7.6-.65,15.21-1.19,22.83-1.4,1.45-.04,2.91-.13,4.24.24.36-.11.04.3.12.04,0,0-.1-.07-.14-.06-2.83.77-5.74,1.11-8.63,1.43-2.57.29-5.12.71-7.68,1.06-8.3,1.15-16.52,2.68-24.67,4.6-5.48,1.29-10.94,2.76-16.19,4.88-.63.25-1.36.2-1.89.69-5.02,1.59-9.83,3.69-14.39,6.31-.96.55-2.2.77-2.76,1.91Zm16.85-12.3c-1.48-.07-2.89.14-4.33,1.04,1.88.19,1.94.17,4.27-.69.6.05,1.1-.11,1.56-.62-.66-.28-1.13-.25-1.5.27Zm-64.23,25.39c.03.19.06.37.09.56,2.42,0,4.84,0,7.26,0,.72,0,1.28-.4,1.86-.76,3.83-2.41,7.67-4.8,11.49-7.23,1.09-.69,2.14-1.46,3.21-2.19-2.35-.32-4.58-.31-6.81-.33-.58,0-1.02.24-1.5.53-2.48,1.5-5,2.96-7.48,4.46-2.72,1.64-5.42,3.3-8.13,4.95Zm21.34-12.31c0,.1-.02.2-.03.3,1.73.28,3.47.55,5.2.86.84.15,1.54,0,2.32-.41,1.97-1.03,4.05-1.88,6.03-2.9.82-.42,1.75-.77,2.69-1.78-2.7.01-5-.55-7.22.3-3.02,1.15-5.99,2.42-8.99,3.64Zm35.85-10.86c-.37-.23-.47-.36-.58-.36-2.4.12-4.66.85-6.86,1.76-.51.21-.96.56-1.51.4-.99-.29-1.86.07-2.76.37-1.54.52-3.09,1.02-4.67,1.44-1.43.38-2.95.69-4.41,1.81,1.41.09,2.52.34,3.57.19,3.31-.47,6.31-2.02,9.51-2.9.55-1.24,1.71-1.03,2.71-1.1,1.72-.12,3.25-.76,4.99-1.61Zm-.28-.24q1.44.06,2.13-.45c-.63-.15-1.19-.06-2.13.45Z"/>
      <path class="cls-9" d="m135.89,44.38c-1.83-.1-3.59.29-5.35.69-6.74,1.55-13.45,3.21-20.06,5.23-1.87.57-3.69,1.3-5.53,1.96-3.65,1.2-7.22,2.6-10.66,4.32-2.28,1.14-4.63,2.19-6.58,3.89-4.4,2.45-8.44,5.43-12.39,8.53-4.81,3.77-9.16,8.03-13.41,12.4-2.36,2.43-4.51,5.06-6.72,7.62-.66.77-1.35,1.19-2.43,1.18-6.54-.05-13.08-.04-19.62-.05-.26,0-.55.06-.88-.43,3.84-4.55,7.99-8.88,12.61-12.7-.27-.52-.65-.42-.96-.42-1.02-.02-2.07.13-3.06-.03-3.63-.6-6.32,1.06-8.96,3.28-3.54,2.97-6.96,6.04-10.22,9.31-.7.7-1.42,1-2.33,1-5.04,0-10.08,0-15.12,0-.19,0-.42.02-.52-.26-.12-.39.24-.56.47-.77,4.68-4.25,9.48-8.33,14.67-11.96,4.23-2.96,8.56-5.75,13.06-8.28,5.38-3.03,10.92-5.72,16.6-8.17,3.75-1.62,7.53-3.13,11.36-4.51,4.53-1.63,9.12-3.11,13.77-4.44,3.6-1.03,7.2-2.01,10.83-2.89,7.27-1.75,14.6-3.21,21.98-4.47,7.66-1.3,15.37-2.15,23.08-2.98,3.65-.39,7.32-.6,10.98-.89-1.16,1.17-2.31,2.35-3.47,3.52-.43-.06-.92-.31-1.08.38l-.07-.07Zm-30.98,3.79c-2.43,0-3.13.19-4.08,1.12,1.98.05,2.53-.11,4.06-1.15.42.05.84.14,1.43-.27-.65-.06-1.07-.14-1.41.3Zm-7.3,1.74c-2.69.38-5.36.81-7.77,2.18-.38.21-.8.23-1.19.11-.85-.28-1.59,0-2.37.28-1.66.59-3.35,1.11-5.05,1.58-1.36.37-2.82.66-4.16,1.66,2.65.56,4.95.24,7.2-.66,1.32-.53,2.66-1.01,4.05-1.35.71-.17,1.77-.25,1.97-.88.25-.78.71-.68,1.16-.69,2.15-.05,4.13-.73,6.08-1.55.64-.27,1.45-.14,2.25-.93-.96,0-1.58-.03-2.18.26Zm-33.21,14.2c-.02-.16-.05-.33-.07-.49-1.53,0-3.07.13-4.59-.03-2.1-.23-3.8.58-5.49,1.62-3.8,2.34-7.64,4.64-11.47,6.93-.78.47-1.58.91-2.55,1.98,2.48,0,4.5-.08,6.52.03,1.39.07,2.52-.36,3.57-1.17.32-.25.65-.49.99-.71,4.36-2.72,8.72-5.44,13.08-8.16Zm13.53-6.35c-4.89-.91-5.64-.8-9.72.98-.56.24-1.16.37-1.72.6-1.57.65-3.13,1.32-5.11,2.16,1.07.15,1.61.18,2.14.31,2.74.64,5.45,1.03,7.92-.87.05-.04.14-.02.2-.05,2.1-1.04,4.2-2.09,6.31-3.13Z"/>
      <path class="cls-3" d="m410.71,106c-15.85-.61-31.71-1.24-47.56-1.87-.68-.03-1.37-.07-2.05-.12-1.08-.08-2.16-.17-3.25-.24.04-.16.07-.32.1-.47l2.74-.28h.01s.07,0,.11,0c.54-.02,1.08-.02,1.62-.04,11.97-.49,23.95-.97,35.92-1.46,2.58-.1,5.17-.2,7.76-.32.39-.02.83.06,1.22-.32.07-.71-.26-1.39-.53-2.06-1.53-3.78-3.1-7.54-4.62-11.32-.89-2.2-1.62-4.47-2.57-6.65-3.19-7.3-8.58-11.72-16.65-12.6-3.18-.34-6.34-.83-9.52-1.24-7.36-.95-14.71-1.89-22.07-2.84-.13-.02-.27-.03-.41-.06-4.41-.67-5.57-1.94-5.62-6.43-.05-4.17-.44-8.24-1.89-12.24-1.76-4.84-5.83-7.71-10.77-7.91-6.19-.25-12.39-.4-18.57-.83-11.27-.79-22.58-1.15-33.81-2.47-.87-.1-1.76-.13-2.67-.62,7.14-.79,14.18-1.48,21.26-1.85,8.09-.42,16.17-1.04,24.26-1.42,3.88-.19,7.77-.43,11.64-.19,6.05.38,10.87,3.06,14.39,8.09,3.28,4.69,4.32,10.06,5.02,15.54.19,1.51-.15,1.68,1.88,1.87,2.64.25,5.25.77,7.88,1.15,6.74.96,13.48,1.87,20.21,2.86,4.72.7,9.08,2.36,12.87,5.31,3.81,2.97,6.79,6.6,8.48,11.2,2.07,5.62,3.68,11.37,5.36,17.11.88,3,1.8,5.99,2.69,8.99.73,2.49-.29,3.82-2.87,3.72Z"/>
      <path class="cls-2" d="m137.04,44.07c1.16-1.17,2.31-2.35,3.47-3.52,2.69-2.58,5.39-5.14,8.06-7.73,2.81-2.73,5.57-5.51,8.37-8.25,1.45-1.42,2.92-2.81,4.41-4.19,2.73-2.53,5.95-4.06,9.65-4.38,3.22-.28,6.16.54,8.07,3.32.98,1.43,1.57,3.15,2.22,4.78.93,2.33,1.75,4.7,2.64,7.05,1.18,3.11,2.38,6.21,3.56,9.32.55,1.45.53,1.51-1.04,1.82-1.73.35-3.49.58-5.21.95-3.25.7-6.51,1.39-9.73,2.24-1.16.31-1.61-.06-1.96-1.03-.85-2.36-1.72-4.71-2.58-7.07-.34-.95-.53-1.98-1.38-2.8-1.56.97-2.65,2.45-3.86,3.77-4.2,4.61-8.76,8.88-13.14,13.31-1.15,1.17-2.85,1.56-4.39,2.09-4.06,1.37-7.97,3.1-11.89,4.81-2.93,1.28-5.81,2.64-8.65,4.1-3.08,1.58-6.14,3.2-9.08,5.02-.64.4-1.24.77-2.05.85.14-.6.55-.85.88-1.17,7.22-7.1,14.45-14.19,21.66-21.31.43-.42,1.37-.72.82-1.67,0,0,.07.07.07.07.55.4.78-.09,1.08-.38Z"/>
      <path class="cls-2" d="m25.64,68.23c.75-1.5,2.14-2.42,3.27-3.55,6.01-6,12.05-11.96,18.11-17.9,4.59-4.5,9.23-8.95,13.82-13.45,3.91-3.84,7.77-7.73,11.68-11.57,3.02-2.96,6.45-5.22,10.76-5.72,3.37-.39,6.42.37,8.53,3.22,1.08,1.47,1.64,3.27,2.3,4.97,1.61,4.18,3.19,8.37,4.79,12.56.51,1.33.95,2.69,1.54,3.99.39.88.17,1.25-.72,1.41-1.94.35-3.89.67-5.81,1.08-3.19.68-6.38,1.38-9.54,2.19-1.05.27-1.63.19-2.01-.92-.86-2.5-1.84-4.97-2.72-7.46-.31-.89-.55-1.8-1.4-2.59-1.96,2.05-3.84,4.07-5.78,6.03-3.71,3.77-7.41,7.56-11.2,11.25-1.12,1.09-2.74,1.49-4.23,1.98-3.94,1.29-7.73,2.97-11.52,4.62-3.3,1.44-6.55,2.98-9.75,4.62-2.84,1.45-5.58,3.1-8.36,4.66-.56.32-1.03.95-1.81.57l.04.03Z"/>
      <path class="cls-9" d="m253.87,73.7c.17-11.48,1.03-22.4,2.03-33.32.67-7.25,1.68-14.46,2.36-21.71.28-2.98.85-5.93,1.3-8.89.29-1.88.28-3.8.67-5.67.52-2.49,2.07-4,4.63-4.05,7.22-.16,14.42-.01,21.62.76,6.73.72,13.28,2.21,19.73,4.14,4.02,1.2,7.95,2.72,11.79,4.5,4.07,1.88,8.08,3.87,11.87,6.24,4.77,2.99,9.4,6.22,13.52,10.09.34.32.76.58,1.1.9.33.31.87.61.52,1.16-.35.54-.83.27-1.25.01-1.04-.64-2.16-1.14-3.22-1.74-4.45-2.5-9.12-4.56-13.82-6.48-5.9-2.42-11.96-4.43-18.15-6.05-5.01-1.31-10.07-2.35-15.18-3.08-7.01-1-14.07-1.57-21.16-1.48-1.2.01-2.64-.57-3.54.24-.81.73-.6,2.16-.82,3.29-1.17,6.07-2.26,12.16-3.47,18.22-1.33,6.66-2.76,13.3-4.37,19.9-1.2,4.88-2.39,9.76-3.65,14.63-.7,2.68-1.56,5.3-2.49,8.4Z"/>
      <path class="cls-9" d="m248.41,116.81c0,4.56-.01,9.13,0,13.69,0,1.7-.04,1.56-1.55,1.58-3.15.04-3.15.05-3.15-3.05,0-5.25,0-10.49,0-15.74,0-2.06.14-1.74,1.81-1.75,1.36,0,2.72,0,4.09,0,1.66,0,1.69,0,2.3,1.63,1.08,2.93,2,5.92,3.21,8.79.73,1.73.94,3.67,2.32,5.7,0-1,0-1.56,0-2.12,0-4.09,0-8.18,0-12.26,0-1.71.02-1.71,1.6-1.74q2.89-.05,2.89,2.89c0,5.38,0,10.76,0,16.15,0,1.46-.03,1.47-1.41,1.49-1.7.02-3.41-.03-5.11.02-.76.02-1.26-.14-1.53-.95-1-2.95-2.05-5.89-3.11-8.83-.66-1.84-1.36-3.66-2.05-5.49-.1,0-.21,0-.31,0Z"/>
      <path class="cls-6" d="m199.28,124.59c1.26,2.75,3.29,4.74,4.57,7.49-1.77,0-3.38-.02-5,0-.68.01-.86-.44-1.17-.92-1.85-2.92-3.76-5.8-5.66-8.69-.17-.26-.3-.59-.83-.72-.26.69-.14,1.42-.14,2.12-.02,2.38-.03,4.77,0,7.15,0,.77-.23,1.13-1.05,1.06-1.21-.09-2.71.46-3.56-.24-.8-.66-.26-2.17-.26-3.3-.03-5.18-.02-10.35,0-15.53,0-1.44.03-1.46,1.44-1.47,3.54-.01,7.08,0,10.62,0,3.97,0,5.69,2.29,6.08,5.74.07.6.08,1.23.01,1.83-.33,3.08-1.42,4.26-4.09,5.16-.24.08-.49.16-.95.31Zm-5.1-4.32c.95,0,1.91.09,2.84-.02,1.47-.17,2.31-1.12,2.27-2.39-.04-1.29-.91-2.15-2.41-2.23-1.42-.07-2.85-.03-4.27-.04-1.62-.01-1.57-.1-1.59,1.51-.04,3.23-.05,3.23,3.16,3.16Z"/>
      <path class="cls-7" d="m283.14,111.55c-.35,1.5-1.35,2.35-1.68,3.54-.19.69-.83.8-1.49.79-1.57-.02-3.13,0-4.7,0-2.31,0-4.34.52-5.33,2.92-1.07,2.58-.92,5.08.73,7.36.6.83,1.65,1.16,2.67,1.34.47.08.95.08,1.43.09q3.41.08,2.91-3.61h-4.98q-.55-4.51,3.72-4.51c1.7,0,3.41.02,5.11,0,.81-.02,1.26.16,1.25,1.12-.04,3.47-.03,6.95,0,10.42,0,.77-.22,1.1-1.03,1.09-3.4-.04-6.82.13-10.21-.1-3.16-.22-5.36-1.92-6.45-5.07-1.32-3.79-1.18-7.52.27-11.17.77-1.94,2.23-3.37,4.45-3.81,1.21-.24,2.41-.4,3.64-.39,3.19.01,6.39,0,9.71,0Z"/>
      <path class="cls-9" d="m164.4,121.59c0-2.93.03-5.86-.02-8.79-.02-.99.32-1.29,1.3-1.27,3.27.05,6.53.04,9.8.02,5.16-.03,7.53,3.7,7.99,7.34.3,2.34.31,4.65-.17,6.9-.73,3.37-3.13,6.05-6.84,6.2-3.67.14-7.35.03-11.03.1-1.05.02-1.03-.58-1.03-1.31.01-3.06,0-6.13,0-9.19Zm4.9.25c0,1.56,0,3.12,0,4.69,0,.57.01,1.12.81,1.11,1.63-.02,3.28.19,4.87-.17,1.36-.3,2.56-1,3.01-2.45.57-1.84.77-3.7.21-5.61-.61-2.07-1.9-3.23-4.04-3.36-1.22-.08-2.44.01-3.66-.05-.87-.04-1.23.26-1.21,1.15.04,1.56.01,3.12.01,4.69Z"/>
      <path class="cls-7" d="m361.12,132.1c-1.55-.03-3.12.12-4.65-.36-2.11-.66-3.76-1.82-4.62-3.93-1.85-4.54-1.85-9,.75-13.27.7-1.15,1.75-2.09,3.12-2.47,3.41-.95,6.88-1.12,10.23.06,2.71.96,4.14,3.21,4.7,5.94.52,2.55.55,5.15,0,7.7-.76,3.56-3.01,6.14-6.89,6.31-.88.04-1.77,0-2.65,0Zm-5.35-10.32c.05.51.07,1.2.19,1.86.45,2.46,2.15,3.94,4.6,4.05,2.49.11,4.5-1.29,5.17-3.63.48-1.68.41-3.33-.19-4.99-1.11-3.09-4.9-4.23-7.66-2.43-1.89,1.24-1.99,3.07-2.11,5.13Z"/>
      <path class="cls-6" d="m90.32,124.66c1.07,2.63,3.21,4.62,4.47,7.41-1.84,0-3.45-.01-5.06,0-.69,0-.85-.5-1.15-.96-2.05-3.19-4.13-6.36-6.21-9.54-.67.29-.38.84-.38,1.25-.03,2.66-.05,5.32,0,7.97.02.96-.26,1.28-1.26,1.31-3.64.11-3.64.15-3.64-3.38,0-5.18,0-10.36,0-15.54,0-1.62.02-1.63,1.69-1.64,3.34,0,6.68-.02,10.01,0,4.45.02,6.99,2.72,6.54,7.19-.36,3.49-1.02,4.47-5.02,5.92Zm-4.94-9.03q-3.73-.03-3.4,3.75c0,.07,0,.14,0,.2,0,.49.2.76.72.76,1.83-.03,3.68.04,5.5-.13,1.35-.13,2.09-1.15,2.05-2.36-.04-1.25-.82-2.07-2.21-2.2-.88-.08-1.77-.01-2.65-.01Z"/>
      <path class="cls-7" d="m383.68,132.13c-.54,0-1.09,0-1.63,0-4.29-.07-7.25-1.64-8.46-6.64-.83-3.44-.55-6.8.94-9.97.82-1.74,2.21-3.06,4.22-3.57,3.17-.81,6.33-.84,9.47.08,2.09.62,3.59,2.08,4.34,4.03,1.49,3.88,1.51,7.89,0,11.77-.96,2.45-2.94,3.89-5.59,4.19-1.08.12-2.18.02-3.26.02,0,.03,0,.05,0,.08Zm-5.55-10.11c.05.35.1,1.1.28,1.82.78,3.12,4.06,4.7,7.02,3.41,2.23-.97,3.3-2.92,3.18-5.8-.15-3.57-2.29-5.76-5.56-5.68-2.94.07-4.91,2.41-4.93,6.24Z"/>
      <path class="cls-5" d="m87.7,60.48c1.95-1.7,4.3-2.75,6.58-3.89,3.44-1.72,7.01-3.12,10.66-4.32.02.7.3,1.31.55,1.95,1.63,4.1,3.25,8.2,4.84,12.32.29.74.42,1.54.61,2.27-.52.38-1.01.3-1.48.3-5.51,0-11.02,0-16.53,0-1.92,0-1.89-.03-2.51-1.87-.64-1.93-1.57-3.76-2.04-5.76-.09-.36-.45-.66-.68-.99Z"/>
      <path class="cls-5" d="m175.14,60.47c.56-1.15,1.8-1.36,2.76-1.91,4.56-2.62,9.37-4.73,14.39-6.31.08,1.1.5,2.1.9,3.12,1.5,3.78,2.99,7.57,4.44,11.37.26.68.34,1.42.49,2.08-.55.36-1.04.29-1.51.29-5.51,0-11.02,0-16.53,0-1.78,0-1.76-.03-2.39-1.77-.83-2.29-1.7-4.58-2.56-6.86Z"/>
      <path class="cls-7" d="m310.67,111.6c-.8,1.35-1.45,2.37-2.02,3.44-.34.63-.86.56-1.4.57-2.59,0-5.17,0-7.76.01-.6,0-1.25-.09-1.71.46-.46.55-.67,1.17-.41,1.89.26.71.76,1.15,1.5,1.2.95.07,1.9.06,2.86.07.95.01,1.91.04,2.86,0,2.57-.09,4.22,1.24,5.32,3.41,1.22,2.4.7,5.94-1.13,7.83-.94.97-2.1,1.54-3.45,1.55-4.02.04-8.03.02-12.05.06-.79,0-1.02-.3-1.07-1.08-.17-3.04-.2-3.04,2.8-3.04,2.38,0,4.77,0,7.15,0,.68,0,1.35-.02,2-.31.88-.39,1.19-1.03,1.13-1.95-.05-.87-.7-1.13-1.35-1.31-.51-.14-1.08-.12-1.62-.13-1.43-.02-2.86.04-4.29-.03-3.35-.17-5.58-2.28-5.87-5.62-.18-2.06,0-4.03,1.67-5.62,1.09-1.04,2.43-1.31,3.74-1.35,4.27-.11,8.54-.04,13.11-.04Z"/>
      <path class="cls-6" d="m137.31,111.63c1.46-.1,3.25-.61,4.34.17,1,.71.28,2.55.34,3.89.07,1.61.02,3.22.02,4.85.8.04.89-.52,1.15-.86,1.83-2.44,3.66-4.88,5.45-7.35.41-.56.84-.79,1.52-.78,1.56.03,3.12.01,4.89.01-.49.95-.91,1.73-1.48,2.48-1.63,2.16-3.14,4.43-4.79,6.58-.67.88-.55,1.52.06,2.32,2.01,2.64,3.98,5.31,5.96,7.98.19.26.49.47.45,1.15-1.82,0-3.68,0-5.53.02-.49,0-.68-.35-.93-.68-2.05-2.77-4.12-5.54-6.18-8.3-.04-.05-.11-.07-.18-.1-.66.22-.38.79-.39,1.2-.03,2.25-.05,4.49,0,6.74.02.89-.31,1.14-1.18,1.18-3.72.18-3.72.2-3.72-3.49,0-4.97,0-9.94,0-14.91,0-.67-.13-1.36.18-2.07Z"/>
      <path class="cls-7" d="m97.75,119.68c0-2.31.02-4.63-.01-6.94-.01-.84.23-1.17,1.15-1.22,3.71-.18,3.71-.21,3.71,3.51,0,2.52,0,5.04,0,7.55,0,.54,0,1.09.05,1.63.15,1.7.89,3.04,2.58,3.55,1.76.53,3.35.08,4.68-1.24.64-.64.71-1.44.71-2.27.02-3.33.04-6.67.05-10,0-.54.03-1.09,0-1.63-.05-.76.23-1.05,1.03-1.1,4.04-.29,4.04-.31,4.04,3.81,0,2.65.01,5.31,0,7.96,0,.95-.05,1.91-.16,2.85-.42,3.37-3.1,5.73-6.25,5.91-1.83.11-3.68.13-5.5,0-3.45-.23-5.75-2.59-5.93-6.06-.11-2.1-.02-4.21-.02-6.32-.04,0-.08,0-.12,0Z"/>
      <path class="cls-7" d="m343.83,131.89v-10.84c-.11-.03-.22-.05-.33-.08-.49.69-1.03,1.36-1.46,2.09-.39.68-.9.96-1.66.84-.07-.01-.14,0-.2,0-1.12.13-2.55-.51-3.3.34-.65.73-.16,2.09-.2,3.17-.03,1.16-.05,2.32,0,3.47.04.83-.17,1.28-1.12,1.21-.88-.07-1.77-.06-2.65,0-.91.06-1.15-.32-1.15-1.18.03-4.7.02-9.4.02-14.09,0-1.43.02-2.86,0-4.29-.01-.68.22-1,.94-.98,1.02.03,2.04.03,3.06,0,.75-.02.9.38.9,1.02-.02,1.91.02,3.81-.01,5.72-.01.76.22,1.11,1.04,1.09,1.7-.04,3.4-.04,5.1,0,.79.02,1.09-.27,1.08-1.05-.03-1.84.04-3.68-.02-5.51-.03-.99.31-1.25,1.28-1.28,3.74-.09,3.74-.13,3.74,3.51,0,4.97,0,9.94,0,14.91,0,2.35.31,2.13-2.22,2.12-.87,0-1.76.13-2.83-.18Z"/>
      <path class="cls-7" d="m25.36,131.92c-.64.27-1.26.16-1.87.14-1.02-.02-2.2.37-3-.18-.73-.5-.84-1.65-1.04-2.59-.15-.71-.62-1.01-1.34-.92-.13.02-.28-.02-.41,0-2.88.67-4.36-.86-5.27-3.32-.04-.11-.17-.2-.41-.45-.72,1.01-1.09,2.13-1.42,3.24-.35,1.18-.92,2.27-1.32,3.42-.22.62-.58.84-1.22.83-1.36-.03-2.71,0-4.31,0,.64-1.88,1.18-3.6,1.8-5.29,1.69-4.65,3.42-9.29,5.1-13.94.31-.87.7-1.37,1.74-1.31,1.56.09,3.13.07,4.69,0,.84-.04,1.24.35,1.5,1.06,1.56,4.34,3.12,8.68,4.69,13.02.37,1.02.77,2.03,1.17,3.04.42,1.06.84,2.12.91,3.27Zm-10.35-15.22h-.49c-.27,2.47-1.94,4.52-2.16,7.12,1.78.09,3.39.14,5.16-.04-.86-2.43-1.69-4.75-2.52-7.08Z"/>
      <path class="cls-7" d="m48.01,131.93c-.61.25-1.24.06-1.84.16-2.22.34-3.82-.23-4.24-2.7-.14-.82-.69-1.15-1.48-1.01-2.6.46-4.45-.34-5.29-3-.09-.29-.28-.64-.84-.64-.51,2.13-1.8,4-2.27,6.19-.18.83-.64,1.24-1.59,1.17-1.28-.09-2.57-.02-4.08-.02.32-1.11.54-2.08.88-3,1.51-4.07,3.06-8.13,4.58-12.2.55-1.46,1.06-2.94,1.58-4.41.23-.66.64-.95,1.37-.93,1.63.04,3.27.05,4.9,0,.82-.03,1.23.3,1.49,1.05,1.34,3.84,2.69,7.68,4.06,11.5.75,2.11,1.56,4.2,2.33,6.3.18.5.51.96.42,1.54Zm-10.52-15.07c-1.29,2.17-1.85,4.57-2.76,6.9h5.15c-.3-2.53-1.71-4.54-2.39-6.9Z"/>
      <path class="cls-7" d="m212.81,111.55c1.32,0,2.41.07,3.49-.02,1.19-.1,1.82.28,2.24,1.47,1.63,4.67,3.36,9.31,5.1,14.06.83-.83,1.05-1.91,1.4-2.87,1.41-3.81,2.74-7.65,4.06-11.49.28-.82.71-1.22,1.63-1.16,1.22.07,2.44.02,3.82.02-.23.91-.34,1.7-.62,2.43-1.54,4.13-3.12,8.25-4.68,12.37-.57,1.52-1.15,3.04-1.66,4.58-.27.83-.68,1.21-1.61,1.16-1.63-.08-3.27-.05-4.9,0-.82.02-1.12-.3-1.39-1.09-1.51-4.43-3.13-8.82-4.71-13.23-.71-1.97-1.39-3.96-2.18-6.22Z"/>
      <path class="cls-7" d="m135.13,111.49c-.89,3.54-2.76,5.14-6.22,4.47-.77-.15-1.66-.04-2.42.19-1.72.52-2.98,1.53-3.26,3.49-.19,1.29-.25,2.55-.02,3.85.5,2.82,1.94,4.19,4.79,4.27,1.77.05,3.54.06,5.31,0,1.08-.04,1.4.34,1.37,1.41-.12,3.53.44,2.85-2.9,2.91-2.11.04-4.22.01-6.33,0-2.87-.03-4.94-1.38-6.11-3.96-1.97-4.34-2.07-8.69.28-12.95.96-1.74,2.35-2.88,4.4-3.26,3.66-.69,7.33-.13,11.13-.4Z"/>
      <path class="cls-7" d="m329.61,111.52c.03.35.07.44.04.48-.72,1.22-.95,2.88-2.13,3.64-1.19.76-2.78.2-4.19.29-.61.04-1.23.02-1.83.12-1.99.33-3.23,1.61-3.65,3.58-.29,1.36-.26,2.68,0,4.04.53,2.68,1.98,4.01,4.73,4.09,1.77.05,3.54.06,5.31,0,1.1-.05,1.38.38,1.35,1.43-.11,3.51.45,2.84-2.91,2.89-2.11.04-4.22.03-6.33-.01-2.76-.05-4.8-1.28-5.99-3.8-2.08-4.39-2.17-8.78.18-13.1.9-1.65,2.24-2.83,4.19-3.21,3.72-.74,7.46-.21,11.22-.42Z"/>
      <path class="cls-7" d="m75.01,111.55c.08.31.12.38.11.44-.92,2.75-2.58,4.32-5.71,3.63-1.17-.26-1.29.46-1.29,1.41.03,4.49,0,8.99.02,13.48,0,1.64,0,1.56-1.55,1.58-3.37.04-3.37.06-3.37-3.22,0-3.81,0-7.62,0-11.44,0-1.96.22-1.82-1.9-1.83-1.29,0-2.59,0-3.88,0-.34,0-.79.01-.81-.4-.06-1.08-.08-2.18,0-3.25.04-.52.63-.39,1.01-.39,2.25,0,4.49,0,6.74,0,3.54,0,7.07,0,10.63,0Z"/>
      <path class="cls-4" d="m396.39,131.93c-.24-.37-.18-.79-.18-1.19,0-5.86,0-11.72,0-17.58,0-1.58.03-1.58,1.52-1.61q3.3-.07,3.3,3.31c0,3.88,0,7.77,0,11.65,0,1.43.03,1.45,1.46,1.46,2.37.02,4.74,0,7.18,0-.07.31-.07.52-.15.69q-1.59,3.41-5.39,3.41c-2.45,0-4.9,0-7.36-.02-.13,0-.26-.08-.39-.12Z"/>
      <path class="cls-4" d="m241.46,121.98c0,2.86,0,5.72,0,8.58,0,1.47-.03,1.52-1.4,1.49-1.14-.02-2.58.5-3.34-.23-.77-.74-.26-2.19-.27-3.32-.03-5.04-.02-10.08-.01-15.12,0-1.81.01-1.81,1.7-1.83q3.32-.04,3.32,3.28c0,2.38,0,4.77,0,7.15Z"/>
      <path class="cls-6" d="m211.56,121.79c0,2.92,0,5.85,0,8.77,0,1.48-.03,1.48-1.4,1.52q-3.48.11-3.48-3.3c0-5.17,0-10.33,0-15.5,0-1.71.02-1.71,1.58-1.74q3.29-.06,3.29,3.31c0,2.31,0,4.62,0,6.93Z"/>
      <path class="cls-8" d="m141.72,104.55c2.04-.49,4.08-.44,6.12.05-2.04.18-4.08.16-6.12-.05Z"/>
      <path class="cls-8" d="m119.23,99.73c-2.03.52-4.07.54-6.11.06,2.04-.21,4.07-.25,6.11-.06Z"/>
      <path class="cls-8" d="m220.19,98.51c-2.03.52-4.07.54-6.11.06,2.04-.21,4.07-.25,6.11-.06Z"/>
      <path class="cls-8" d="m92.66,100.13c-1.9.55-3.8.49-5.71.07,1.9-.22,3.8-.23,5.71-.07Z"/>
      <path class="cls-8" d="m114.34,104.15c1.91-.43,3.81-.48,5.71.06-1.91.18-3.81.15-5.71-.06Z"/>
      <path class="cls-8" d="m215.71,105.38c1.91-.47,3.81-.46,5.71.05-1.91.19-3.81.14-5.71-.05Z"/>
      <path class="cls-8" d="m60.79,103.31c1.77-.48,3.54-.46,5.3.07-1.77.17-3.54.16-5.3-.07Z"/>
      <path class="cls-8" d="m3.96,101.74c0,.14,0,.29,0,.43-1.34.28-2.65-.01-3.96-.19,1.32-.24,2.63-.48,3.96-.24Z"/>
      <path class="cls-8" d="m241.87,105.77c1.5-.47,2.99-.45,4.48.05-1.5.19-2.99.15-4.48-.05Z"/>
      <path class="cls-8" d="m347.32,29.89c-.89-.55-1.58-.96-2.25-1.41-.25-.17-.24-.43-.05-.68.17-.22.38-.13.52-.03.71.5,1.47.96,1.77,2.12Z"/>
      <path class="cls-3" d="m357.95,103.3c-.03.16-.06.32-.1.47-.06.02-.11.03-.17.04l-2.66-.15-.36-.02,3.29-.34Z"/>
      <path class="cls-8" d="m191.58,98.91c-1.08.52-2.17.48-3.26.03,1.08-.24,2.17-.2,3.26-.03Z"/>
      <path class="cls-8" d="m10.93,102.47c1.1-.46,2.18-.42,3.25.08-1.09.18-2.17.17-3.25-.08Z"/>
      <path class="cls-8" d="m186.28,104.96c1.09-.45,2.18-.48,3.25.04-1.09.15-2.17.2-3.25-.04Z"/>
      <path class="cls-8" d="m15.41,101.35c-1.08.51-2.16.5-3.26.06,1.08-.2,2.17-.25,3.26-.06Z"/>
      <path class="cls-8" d="m147.02,99.34c-1.08.5-2.16.47-3.25.03,1.08-.23,2.17-.2,3.25-.03Z"/>
      <path class="cls-8" d="m258.62,97.68c-.94.48-1.89.48-2.85.06.95-.22,1.89-.23,2.85-.06Z"/>
      <path class="cls-8" d="m65.27,100.56c-.94.5-1.89.46-2.84.04.94-.25,1.89-.19,2.84-.04Z"/>
      <path class="cls-8" d="m254.95,106.17c.96-.46,1.91-.4,2.84.06-.95.18-1.9.18-2.84-.06Z"/>
      <path class="cls-8" d="m87.77,103.73c.95-.42,1.9-.46,2.85.04-.95.16-1.9.22-2.85-.04Z"/>
      <path class="cls-8" d="m245.94,98.1c-.8.5-1.62.48-2.44.04.81-.24,1.62-.19,2.44-.04Z"/>
      <path class="cls-8" d="m42.38,100.96c-.81.48-1.62.46-2.44.02.81-.21,1.62-.19,2.44-.02Z"/>
      <path class="cls-8" d="m334.31,100.1c.1-.03.2-.02.29.03.3.4-.05.77-.08,1.17-.26-.37-.33-.77-.21-1.2Z"/>
      <path class="cls-8" d="m40.76,102.95c.41-.37.81-.37,1.22.01-.41.19-.81.19-1.22-.01Z"/>
      <path class="cls-2" d="m25.6,68.2c.12.12.12.23,0,.26-.06.02-.15-.05-.23-.08.09-.05.19-.1.28-.14,0,0-.04-.03-.04-.03Z"/>
      <path class="cls-1" d="m137.04,44.07c-.3.29-.54.78-1.08.38.16-.69.66-.44,1.08-.38Z"/>
      <polygon class="cls-3" points="361.1 104.02 357.68 103.82 355.02 103.67 354.66 103.65 357.95 103.3 360.69 103.02 360.7 103.02 360.81 103.01 360.81 103.02 361.1 104.02"/>
    </g>
  </g>
</svg>